<?xml version="1.0" encoding="UTF-8" standalone="no"?>
<!DOCTYPE svg PUBLIC "-//W3C//DTD SVG 1.1//EN" "http://www.w3.org/Graphics/SVG/1.1/DTD/svg11.dtd">
<svg width="100%" height="100%" viewBox="0 0 4117 2442" version="1.1" xmlns="http://www.w3.org/2000/svg" xmlns:xlink="http://www.w3.org/1999/xlink" xml:space="preserve" xmlns:serif="http://www.serif.com/" style="fill-rule:evenodd;clip-rule:evenodd;stroke-linejoin:round;stroke-miterlimit:2;">
    <g transform="matrix(1,0,0,1,-75.205,-912.498)">
        <g transform="matrix(4.16667,0,0,4.16667,0,0)">
            <g transform="matrix(1,0,0,1,0,521.316)">
                <rect x="161.501" y="219" width="16.194" height="64.684" style="fill:rgb(238,0,61);"/>
            </g>
        </g>
        <g transform="matrix(4.16667,0,0,4.16667,0,0)">
            <g transform="matrix(1,0,0,1,209.268,738.959)">
                <path d="M0,66.041C-6.695,66.041 -12.244,64.625 -16.646,61.79C-21.049,58.955 -24.126,55.127 -25.874,50.3L-12.033,42.248C-9.68,47.857 -5.519,50.663 0.452,50.663C5.397,50.663 7.87,49.256 7.87,46.447C7.87,44.593 6.444,43.1 3.593,41.963C2.39,41.465 -0.255,40.626 -4.343,39.444C-10.133,37.757 -14.717,35.388 -18.094,32.342C-21.472,29.298 -23.16,25.059 -23.16,19.632C-23.16,13.783 -21.065,9.047 -16.872,5.428C-12.681,1.809 -7.45,0 -1.177,0C4.13,0 8.835,1.238 12.937,3.71C17.037,6.183 20.174,9.771 22.346,14.475L8.775,22.436C6.785,17.732 3.497,15.38 -1.086,15.38C-3.017,15.38 -4.479,15.774 -5.474,16.563C-6.469,17.351 -6.966,18.35 -6.966,19.564C-6.966,20.96 -6.23,22.142 -4.754,23.112C-3.28,24.084 -0.406,25.205 3.869,26.477C6.881,27.563 9.339,28.448 11.243,29.133C13.147,29.821 15.217,30.901 17.452,32.375C19.685,33.849 21.346,35.745 22.433,38.061C23.52,40.378 24.064,43.101 24.064,46.229C24.064,52.441 21.862,57.297 17.46,60.795C13.057,64.293 7.237,66.041 0,66.041" style="fill:rgb(238,0,61);fill-rule:nonzero;"/>
            </g>
        </g>
        <g transform="matrix(4.16667,0,0,4.16667,0,0)">
            <g transform="matrix(1,0,0,1,255.406,755.967)">
                <path d="M0,32.026L21.802,32.026L21.802,47.677L-16.194,47.677L-16.194,-15.651L0,-15.651L0,32.026Z" style="fill:rgb(238,0,61);fill-rule:nonzero;"/>
            </g>
        </g>
        <g transform="matrix(4.16667,0,0,4.16667,0,0)">
            <g transform="matrix(1,0,0,1,303.897,763.385)">
                <path d="M0,17.19L12.756,17.19L6.333,-4.342L0,17.19ZM20.42,40.259L17.385,31.122L-4.166,31.122L-6.898,40.259L-24.427,40.259L-4.247,-23.069L16.142,-23.069L37.091,40.259L20.42,40.259Z" style="fill:rgb(238,0,61);fill-rule:nonzero;"/>
            </g>
        </g>
        <g transform="matrix(4.16667,0,0,4.16667,0,0)">
            <g transform="matrix(1,0,0,1,410.196,803.644)">
                <path d="M0,-63.328L0,0L-16.104,0L-16.104,-34.107L-31.483,-8.685L-33.111,-8.685L-48.4,-34.017L-48.4,0L-64.594,0L-64.594,-63.328L-48.4,-63.328L-32.297,-36.278L-16.104,-63.328L0,-63.328Z" style="fill:rgb(238,0,61);fill-rule:nonzero;"/>
            </g>
        </g>
        <g transform="matrix(4.16667,0,0,4.16667,0,0)">
            <g transform="matrix(1,0,0,1,505.367,803.644)">
                <path d="M0,-63.328L0,0L-16.104,0L-16.104,-34.107L-31.483,-8.685L-33.111,-8.685L-48.4,-34.017L-48.4,0L-64.594,0L-64.594,-63.328L-48.4,-63.328L-32.297,-36.278L-16.104,-63.328L0,-63.328Z" style="fill:rgb(23,103,91);fill-rule:nonzero;"/>
            </g>
        </g>
        <g transform="matrix(4.16667,0,0,4.16667,0,0)">
            <g transform="matrix(1,0,0,1,534.408,763.385)">
                <path d="M0,17.19L12.754,17.19L6.331,-4.342L0,17.19ZM20.419,40.259L17.385,31.122L-4.166,31.122L-6.899,40.259L-24.427,40.259L-4.247,-23.069L16.142,-23.069L37.091,40.259L20.419,40.259Z" style="fill:rgb(23,103,91);fill-rule:nonzero;"/>
            </g>
        </g>
        <g transform="matrix(4.16667,0,0,4.16667,0,0)">
            <g transform="matrix(1,0,0,1,592.307,755.967)">
                <path d="M0,32.026L21.802,32.026L21.802,47.677L-16.194,47.677L-16.194,-15.651L0,-15.651L0,32.026Z" style="fill:rgb(23,103,91);fill-rule:nonzero;"/>
            </g>
        </g>
        <g transform="matrix(4.16667,0,0,4.16667,0,0)">
            <g transform="matrix(1,0,0,1,640.798,763.385)">
                <path d="M0,17.19L12.755,17.19L6.333,-4.342L0,17.19ZM20.419,40.259L17.385,31.122L-4.166,31.122L-6.899,40.259L-24.427,40.259L-4.247,-23.069L16.142,-23.069L37.092,40.259L20.419,40.259Z" style="fill:rgb(23,103,91);fill-rule:nonzero;"/>
            </g>
        </g>
        <g transform="matrix(4.16667,0,0,4.16667,0,0)">
            <g transform="matrix(1,0,0,1,728.279,803.644)">
                <path d="M0,-63.328L-21.35,-24.336L-21.35,0L-37.545,0L-37.545,-24.156L-58.894,-63.328L-40.71,-63.328L-29.493,-39.897L-18.184,-63.328L0,-63.328Z" style="fill:rgb(23,103,91);fill-rule:nonzero;"/>
            </g>
        </g>
        <g transform="matrix(4.16667,0,0,4.16667,0,0)">
            <g transform="matrix(1,0,0,1,751.167,738.959)">
                <path d="M0,66.041C-6.695,66.041 -12.245,64.625 -16.646,61.79C-21.049,58.955 -24.125,55.127 -25.875,50.3L-12.033,42.248C-9.68,47.857 -5.519,50.663 0.453,50.663C5.397,50.663 7.87,49.256 7.87,46.447C7.87,44.593 6.445,43.1 3.593,41.963C2.391,41.465 -0.255,40.626 -4.342,39.444C-10.132,37.757 -14.717,35.388 -18.094,32.342C-21.471,29.298 -23.16,25.059 -23.16,19.632C-23.16,13.783 -21.065,9.047 -16.872,5.428C-12.682,1.809 -7.45,0 -1.177,0C4.13,0 8.834,1.238 12.937,3.71C17.038,6.183 20.174,9.771 22.345,14.475L8.776,22.436C6.785,17.732 3.496,15.38 -1.085,15.38C-3.016,15.38 -4.478,15.774 -5.473,16.563C-6.468,17.351 -6.967,18.35 -6.967,19.564C-6.967,20.96 -6.23,22.142 -4.755,23.112C-3.279,24.084 -0.406,25.205 3.869,26.477C6.881,27.563 9.339,28.448 11.244,29.133C13.147,29.821 15.216,30.901 17.452,32.375C19.684,33.849 21.345,35.745 22.433,38.061C23.52,40.378 24.064,43.101 24.064,46.229C24.064,52.441 21.862,57.297 17.46,60.795C13.057,64.293 7.237,66.041 0,66.041" style="fill:rgb(23,103,91);fill-rule:nonzero;"/>
            </g>
        </g>
        <g transform="matrix(4.16667,0,0,4.16667,0,0)">
            <g transform="matrix(1,0,0,1,0,519.96)">
                <rect x="781.112" y="220.356" width="16.194" height="63.328" style="fill:rgb(23,103,91);"/>
            </g>
        </g>
        <g transform="matrix(4.16667,0,0,4.16667,0,0)">
            <g transform="matrix(1,0,0,1,826.256,763.385)">
                <path d="M0,17.19L12.755,17.19L6.333,-4.342L0,17.19ZM20.419,40.259L17.385,31.122L-4.166,31.122L-6.899,40.259L-24.427,40.259L-4.247,-23.069L16.142,-23.069L37.092,40.259L20.419,40.259Z" style="fill:rgb(23,103,91);fill-rule:nonzero;"/>
            </g>
        </g>
        <g transform="matrix(4.16667,0,0,4.16667,0,0)">
            <g transform="matrix(1,0,0,1,43.8322,647.405)">
                <path d="M0,32.026C4.402,32.026 7.991,30.564 10.766,27.638C13.539,24.713 14.928,20.839 14.928,16.014C14.928,11.189 13.539,7.314 10.766,4.388C7.991,1.463 4.402,0 0,0L-9.137,0L-9.137,32.026L0,32.026ZM0,-15.651C8.745,-15.651 16.059,-12.619 21.939,-6.558C27.819,-0.497 30.759,7.028 30.759,16.014C30.759,25.001 27.819,32.524 21.939,38.586C16.059,44.647 8.745,47.677 0,47.677L-25.783,47.677L-25.783,-15.651L0,-15.651Z" style="fill:rgb(23,103,91);fill-rule:nonzero;"/>
            </g>
        </g>
        <g transform="matrix(4.16667,0,0,4.16667,0,0)">
            <g transform="matrix(1,0,0,1,98.2943,646.953)">
                <path d="M0,32.931L24.517,32.931L24.517,48.129L-16.194,48.129L-16.194,-15.198L24.064,-15.198L24.064,-0.09L0,-0.09L0,8.686L21.802,8.686L21.802,23.613L0,23.613L0,32.931Z" style="fill:rgb(23,103,91);fill-rule:nonzero;"/>
            </g>
        </g>
        <g transform="matrix(4.16667,0,0,4.16667,0,0)">
            <g transform="matrix(1,0,0,1,143.709,631.754)">
                <path d="M0,63.328L-17.731,0L-0.271,0L9.499,39.897L20.808,0L33.564,0L44.872,39.897L54.733,0L72.103,0L54.461,63.328L37.363,63.328L27.23,27.594L17.098,63.328L0,63.328Z" style="fill:rgb(23,103,91);fill-rule:nonzero;"/>
            </g>
        </g>
        <g transform="matrix(4.16667,0,0,4.16667,0,0)">
            <g transform="matrix(1,0,0,1,236.709,654.823)">
                <path d="M0,17.19L12.756,17.19L6.333,-4.342L0,17.19ZM20.42,40.259L17.385,31.122L-4.166,31.122L-6.898,40.259L-24.427,40.259L-4.247,-23.069L16.142,-23.069L37.091,40.259L20.42,40.259Z" style="fill:rgb(23,103,91);fill-rule:nonzero;"/>
            </g>
        </g>
        <g transform="matrix(4.16667,0,0,4.16667,0,0)">
            <g transform="matrix(1,0,0,1,313.335,695.082)">
                <path d="M0,-63.328L16.103,-63.328L16.103,0L3.618,0L-18.727,-31.845L-18.727,0L-34.921,0L-34.921,-63.328L-22.346,-63.328L0,-31.483L0,-63.328Z" style="fill:rgb(23,103,91);fill-rule:nonzero;"/>
            </g>
        </g>
        <g transform="matrix(4.16667,0,0,4.16667,0,0)">
            <g transform="matrix(1,0,0,1,384.623,666.132)">
                <path d="M0,-5.428C1.809,-5.428 3.332,-6.062 4.569,-7.328C5.804,-8.595 6.423,-10.223 6.423,-12.213C6.423,-14.204 5.804,-15.816 4.569,-17.054C3.332,-18.288 1.809,-18.907 0,-18.907L-8.413,-18.907L-8.413,-5.428L0,-5.428ZM0,-34.378C6.392,-34.378 11.761,-32.296 16.104,-28.136C20.446,-23.973 22.617,-18.666 22.617,-12.213C22.617,-5.759 20.446,-0.452 16.104,3.709C11.761,7.871 6.392,9.952 0,9.952L-8.413,9.952L-8.413,28.95L-24.607,28.95L-24.607,-34.378L0,-34.378Z" style="fill:rgb(23,103,91);fill-rule:nonzero;"/>
            </g>
        </g>
        <g transform="matrix(4.16667,0,0,4.16667,0,0)">
            <g transform="matrix(1,0,0,1,429.766,646.953)">
                <path d="M0,32.931L24.517,32.931L24.517,48.129L-16.194,48.129L-16.194,-15.198L24.064,-15.198L24.064,-0.09L0,-0.09L0,8.686L21.802,8.686L21.802,23.613L0,23.613L0,32.931Z" style="fill:rgb(23,103,91);fill-rule:nonzero;"/>
            </g>
        </g>
        <g transform="matrix(4.16667,0,0,4.16667,0,0)">
            <g transform="matrix(1,0,0,1,541.761,647.405)">
                <path d="M0,32.026C4.402,32.026 7.992,30.564 10.766,27.638C13.54,24.713 14.927,20.839 14.927,16.014C14.927,11.189 13.54,7.314 10.766,4.388C7.992,1.463 4.402,0 0,0L-9.137,0L-9.137,32.026L0,32.026ZM0,-15.651C8.745,-15.651 16.059,-12.619 21.939,-6.558C27.819,-0.497 30.759,7.028 30.759,16.014C30.759,25.001 27.819,32.524 21.939,38.586C16.059,44.647 8.745,47.677 0,47.677L-25.783,47.677L-25.783,-15.651L0,-15.651Z" style="fill:rgb(23,103,91);fill-rule:nonzero;"/>
            </g>
        </g>
        <g transform="matrix(4.16667,0,0,4.16667,0,0)">
            <g transform="matrix(1,0,0,1,596.766,654.823)">
                <path d="M0,17.19L12.755,17.19L6.333,-4.342L0,17.19ZM20.419,40.259L17.385,31.122L-4.166,31.122L-6.899,40.259L-24.427,40.259L-4.247,-23.069L16.142,-23.069L37.092,40.259L20.419,40.259Z" style="fill:rgb(23,103,91);fill-rule:nonzero;"/>
            </g>
        </g>
        <g transform="matrix(4.16667,0,0,4.16667,0,0)">
            <g transform="matrix(1,0,0,1,699.085,668.033)">
                <path d="M0,-9.229L0,-2.805C0,6.483 -2.911,14.007 -8.731,19.767C-14.552,25.526 -22.105,28.406 -31.393,28.406C-41.285,28.406 -49.411,25.24 -55.774,18.907C-62.137,12.575 -65.318,4.764 -65.318,-4.524C-65.318,-13.811 -62.151,-21.652 -55.819,-28.046C-49.486,-34.438 -41.647,-37.635 -32.297,-37.635C-26.388,-37.635 -20.975,-36.308 -16.059,-33.654C-11.144,-30.999 -7.299,-27.471 -4.523,-23.069L-18.275,-15.199C-19.542,-17.189 -21.397,-18.787 -23.838,-19.994C-26.281,-21.199 -29.04,-21.803 -32.117,-21.803C-37.124,-21.803 -41.224,-20.175 -44.42,-16.918C-47.617,-13.661 -49.215,-9.5 -49.215,-4.434C-49.215,0.452 -47.631,4.584 -44.466,7.96C-41.299,11.339 -36.853,13.027 -31.122,13.027C-23.764,13.027 -18.908,10.253 -16.556,4.704L-31.936,4.704L-31.936,-9.229L0,-9.229Z" style="fill:rgb(23,103,91);fill-rule:nonzero;"/>
            </g>
        </g>
        <g transform="matrix(4.16667,0,0,4.16667,0,0)">
            <g transform="matrix(1,0,0,1,723.33,654.823)">
                <path d="M0,17.19L12.755,17.19L6.333,-4.342L0,17.19ZM20.419,40.259L17.385,31.122L-4.166,31.122L-6.899,40.259L-24.427,40.259L-4.247,-23.069L16.142,-23.069L37.092,40.259L20.419,40.259Z" style="fill:rgb(23,103,91);fill-rule:nonzero;"/>
            </g>
        </g>
        <g transform="matrix(4.16667,0,0,4.16667,0,0)">
            <g transform="matrix(1,0,0,1,799.955,695.082)">
                <path d="M0,-63.328L16.104,-63.328L16.104,0L3.618,0L-18.727,-31.845L-18.727,0L-34.92,0L-34.92,-63.328L-22.346,-63.328L0,-31.483L0,-63.328Z" style="fill:rgb(23,103,91);fill-rule:nonzero;"/>
            </g>
        </g>
        <g transform="matrix(4.16667,0,0,4.16667,0,0)">
            <g transform="matrix(1,0,0,1,888.976,668.033)">
                <path d="M0,-9.229L0,-2.805C0,6.483 -2.911,14.007 -8.731,19.767C-14.552,25.526 -22.105,28.406 -31.393,28.406C-41.285,28.406 -49.411,25.24 -55.774,18.907C-62.137,12.575 -65.318,4.764 -65.318,-4.524C-65.318,-13.811 -62.151,-21.652 -55.819,-28.046C-49.486,-34.438 -41.647,-37.635 -32.297,-37.635C-26.388,-37.635 -20.975,-36.308 -16.059,-33.654C-11.144,-30.999 -7.299,-27.471 -4.523,-23.069L-18.275,-15.199C-19.542,-17.189 -21.397,-18.787 -23.838,-19.994C-26.281,-21.199 -29.04,-21.803 -32.117,-21.803C-37.124,-21.803 -41.224,-20.175 -44.42,-16.918C-47.617,-13.661 -49.215,-9.5 -49.215,-4.434C-49.215,0.452 -47.631,4.584 -44.466,7.96C-41.299,11.339 -36.852,13.027 -31.122,13.027C-23.764,13.027 -18.908,10.253 -16.556,4.704L-31.936,4.704L-31.936,-9.229L0,-9.229Z" style="fill:rgb(23,103,91);fill-rule:nonzero;"/>
            </g>
        </g>
        <g transform="matrix(4.16667,0,0,4.16667,0,0)">
            <g transform="matrix(1,0,0,1,913.22,654.823)">
                <path d="M0,17.19L12.755,17.19L6.333,-4.342L0,17.19ZM20.419,40.259L17.385,31.122L-4.166,31.122L-6.899,40.259L-24.427,40.259L-4.247,-23.069L16.142,-23.069L37.092,40.259L20.419,40.259Z" style="fill:rgb(23,103,91);fill-rule:nonzero;"/>
            </g>
        </g>
        <g transform="matrix(4.16667,0,0,4.16667,0,0)">
            <g transform="matrix(1,0,0,1,989.847,695.082)">
                <path d="M0,-63.328L16.104,-63.328L16.104,0L3.618,0L-18.727,-31.845L-18.727,0L-34.92,0L-34.92,-63.328L-22.346,-63.328L0,-31.483L0,-63.328Z" style="fill:rgb(23,103,91);fill-rule:nonzero;"/>
            </g>
        </g>
        <g transform="matrix(4.16667,0,0,4.16667,0,0)">
            <g transform="matrix(1,0,0,1,477.483,680.153)">
                <path d="M0,-33.47L0,-19.268L8.955,-19.268C10.946,-19.205 12.575,-19.839 13.841,-21.168C15.108,-22.493 15.741,-24.213 15.741,-26.324C15.741,-28.433 15.108,-30.153 13.841,-31.481C12.575,-32.806 10.946,-33.47 8.955,-33.47L0,-33.47ZM16.826,14.929L5.789,-5.515L0,-5.515L0,14.929L-16.194,14.929L-16.194,-48.399L9.136,-48.399C15.59,-48.399 21.002,-46.33 25.375,-42.199C29.748,-38.069 31.935,-32.839 31.935,-26.504C31.935,-22.705 30.968,-19.222 29.039,-16.057C27.108,-12.89 24.485,-10.37 21.17,-8.503L34.196,14.929L16.826,14.929Z" style="fill:rgb(23,103,91);fill-rule:nonzero;"/>
            </g>
        </g>
        <g transform="matrix(4.16667,0,0,4.16667,0,0)">
            <g transform="matrix(1,0,0,1,383.611,219)">
                <path d="M0,356.829C-13.465,356.829 -22.651,345.914 -20.518,332.449L28.275,24.38C30.408,10.916 43.052,0 56.516,0C69.981,0 79.167,10.916 77.034,24.38L28.241,332.449C26.108,345.914 13.464,356.829 0,356.829" style="fill:rgb(23,103,91);fill-rule:nonzero;"/>
            </g>
        </g>
        <g transform="matrix(4.16667,0,0,4.16667,0,0)">
            <g transform="matrix(1,0,0,1,458.817,219)">
                <path d="M0,356.829C-13.465,356.829 -22.651,345.914 -20.518,332.449L28.275,24.38C30.408,10.916 43.052,0 56.516,0C69.981,0 79.167,10.916 77.034,24.38L28.241,332.449C26.108,345.914 13.464,356.829 0,356.829" style="fill:rgb(23,103,91);fill-rule:nonzero;"/>
            </g>
        </g>
        <g transform="matrix(4.16667,0,0,4.16667,0,0)">
            <g transform="matrix(1,0,0,1,534.398,360.845)">
                <path d="M0,214.984C-13.465,214.984 -22.651,204.069 -20.518,190.604L6.112,24.38C8.244,10.915 20.888,0 34.353,0C47.817,0 57.004,10.915 54.871,24.38L28.241,190.604C26.108,204.069 13.464,214.984 0,214.984" style="fill:rgb(23,103,91);fill-rule:nonzero;"/>
            </g>
        </g>
        <g transform="matrix(4.16667,0,0,4.16667,0,0)">
            <g transform="matrix(1,0,0,1,609.944,360.845)">
                <path d="M0,214.984C-13.465,214.984 -22.651,204.069 -20.518,190.604L6.112,24.38C8.244,10.915 20.888,0 34.353,0C47.817,0 57.004,10.915 54.871,24.38L28.241,190.604C26.108,204.069 13.464,214.984 0,214.984" style="fill:rgb(23,103,91);fill-rule:nonzero;"/>
            </g>
        </g>
        <g transform="matrix(4.16667,0,0,4.16667,0,0)">
            <g transform="matrix(1,0,0,1,685.39,360.845)">
                <path d="M0,214.984C-13.464,214.984 -22.651,204.069 -20.518,190.604L6.112,24.38C8.244,10.915 20.888,0 34.353,0C47.817,0 57.004,10.915 54.871,24.38L28.241,190.604C26.108,204.069 13.464,214.984 0,214.984" style="fill:rgb(23,103,91);fill-rule:nonzero;"/>
            </g>
        </g>
        <g transform="matrix(4.16667,0,0,4.16667,0,0)">
            <g transform="matrix(0,-1,-1,0,312.244,476.094)">
                <path d="M-28.813,-28.813C-44.726,-28.813 -57.625,-15.913 -57.625,-0.001C-57.625,15.913 -44.726,28.813 -28.813,28.813C-12.9,28.813 -0.001,15.913 -0.001,-0.001C-0.001,-15.913 -12.9,-28.813 -28.813,-28.813" style="fill:rgb(238,0,61);fill-rule:nonzero;"/>
            </g>
        </g>
        <g transform="matrix(4.16667,0,0,4.16667,0,0)">
            <g transform="matrix(0,-1,-1,0,579.738,261.16)">
                <path d="M-28.813,-28.813C-44.726,-28.813 -57.625,-15.913 -57.625,-0.001C-57.625,15.913 -44.726,28.813 -28.813,28.813C-12.9,28.813 -0.001,15.913 -0.001,-0.001C-0.001,-15.913 -12.9,-28.813 -28.813,-28.813" style="fill:rgb(238,0,61);fill-rule:nonzero;"/>
            </g>
        </g>
    </g>
</svg>
